PathFileType	4	(X/Y/Z)	Kaydara	
DataRate	CameraRate	NumFrames	NumMarkers	Units	OrigDataRate	OrigDataStartFrame	OrigNumFrames	
240.00	240.00	4	72	mm	240.00	89	355	
Frame#	Time	Hips			RightUpLeg			RightLeg			RightFoot			RightFoot_End			LeftUpLeg			LeftLeg			LeftFoot			LeftFoot_End			Spine			Spine1			Spine2			Spine3			Neck			Head			Head_End			RightShoulder			RightArm			RightForeArm			RightHand			RightHandThumb1			RightHandThumb2			RightHandThumb3			RightHandThumb3_End			RightInHandIndex			RightHandIndex1			RightHandIndex2			RightHandIndex3			RightHandIndex3_End			RightInHandMiddle			RightHandMiddle1			RightHandMiddle2			RightHandMiddle3			RightHandMiddle3_End			RightInHandRing			RightHandRing1			RightHandRing2			RightHandRing3			RightHandRing3_End			RightInHandPinky			RightHandPinky1			RightHandPinky2			RightHandPinky3			RightHandPinky3_End			LeftShoulder			LeftArm			LeftForeArm			LeftHand			LeftHandThumb1			LeftHandThumb2			LeftHandThumb3			LeftHandThumb3_End			LeftInHandIndex			LeftHandIndex1			LeftHandIndex2			LeftHandIndex3			LeftHandIndex3_End			LeftInHandMiddle			LeftHandMiddle1			LeftHandMiddle2			LeftHandMiddle3			LeftHandMiddle3_End			LeftInHandRing			LeftHandRing1			LeftHandRing2			LeftHandRing3			LeftHandRing3_End			LeftInHandPinky			LeftHandPinky1			LeftHandPinky2			LeftHandPinky3			LeftHandPinky3_End			
		X1	Y1	Z1	X2	Y2	Z2	X3	Y3	Z3	X4	Y4	Z4	X5	Y5	Z5	X6	Y6	Z6	X7	Y7	Z7	X8	Y8	Z8	X9	Y9	Z9	X10	Y10	Z10	X11	Y11	Z11	X12	Y12	Z12	X13	Y13	Z13	X14	Y14	Z14	X15	Y15	Z15	X16	Y16	Z16	X17	Y17	Z17	X18	Y18	Z18	X19	Y19	Z19	X20	Y20	Z20	X21	Y21	Z21	X22	Y22	Z22	X23	Y23	Z23	X24	Y24	Z24	X25	Y25	Z25	X26	Y26	Z26	X27	Y27	Z27	X28	Y28	Z28	X29	Y29	Z29	X30	Y30	Z30	X31	Y31	Z31	X32	Y32	Z32	X33	Y33	Z33	X34	Y34	Z34	X35	Y35	Z35	X36	Y36	Z36	X37	Y37	Z37	X38	Y38	Z38	X39	Y39	Z39	X40	Y40	Z40	X41	Y41	Z41	X42	Y42	Z42	X43	Y43	Z43	X44	Y44	Z44	X45	Y45	Z45	X46	Y46	Z46	X47	Y47	Z47	X48	Y48	Z48	X49	Y49	Z49	X50	Y50	Z50	X51	Y51	Z51	X52	Y52	Z52	X53	Y53	Z53	X54	Y54	Z54	X55	Y55	Z55	X56	Y56	Z56	X57	Y57	Z57	X58	Y58	Z58	X59	Y59	Z59	X60	Y60	Z60	X61	Y61	Z61	X62	Y62	Z62	X63	Y63	Z63	X64	Y64	Z64	X65	Y65	Z65	X66	Y66	Z66	X67	Y67	Z67	X68	Y68	Z68	X69	Y69	Z69	X70	Y70	Z70	X71	Y71	Z71	X72	Y72	Z72	

89	0.367	1921.0129	906.651	56.2195	1997.7126197341431	890.8794628563275	1.590714492892784	1915.8350534796402	489.75552552915303	-86.67316598203777	1903.5544102354465	106.20950977064878	-161.15255858936172	1828.551386642433	30.652732184509606	-2.399559787915158	1853.2410617314808	893.9968883285541	122.48507892404363	1789.0939652959066	490.74566065261143	216.40617859868846	1747.2350090055847	59.36554524341523	297.3424163641051	1614.121719786423	-15.172986416437755	181.93364572350794	1878.6900369842274	1033.543954098003	5.527113114167676	1829.7884576223814	1100.046695320001	-45.2219565812186	1774.2646599198533	1163.5468359643894	-100.60081808181974	1714.756885044702	1214.6827616029095	-157.7634701959591	1650.715266286235	1269.5346669877124	-218.15544451540455	1591.125066590048	1319.2989064057413	-272.27714023010856	1472.7888732542424	1413.4128919294837	-323.6065497866651	1694.5099560484662	1253.006760922104	-219.7648292421951	1754.7147106704688	1245.2409824516135	-331.39330666989895	1765.6984113481678	975.2353195757184	-325.41665241568586	1817.280101132209	754.3515281027964	-399.59377898553583	1822.1006678648237	741.1804061219492	-412.5327953714483	1812.4316808777417	730.6715482188812	-425.5454404228202	1806.0545056861838	721.5275850023332	-433.56803967031306	1801.042936260555	712.3429256379231	-439.36693410675935	1825.5216354706388	732.2584186165079	-409.8494420674359	1832.0692621127541	696.7868428368193	-422.2937171648843	1827.5374910454461	678.34803856817	-431.7254686253457	1818.9331966250195	674.552609019463	-437.893868938907	1807.9079894188174	676.5834134716774	-443.2049754669166	1825.8308515787132	728.8246041924957	-406.62595739812315	1832.3870636215731	692.3675646253059	-417.019930291724	1827.450204632767	671.9169314367024	-426.84711791629917	1817.073362607653	667.1794396466455	-434.0660525790742	1805.0116936461957	669.3244904808306	-439.76894851570813	1825.9781395088612	727.2213807526249	-404.0188563866988	1832.2622962382682	692.9157537127129	-411.03521002363686	1827.956312711191	674.8117525476191	-419.1093740607124	1817.9454207625379	670.0938387176385	-425.81173459655645	1806.6036408895834	672.0404941242671	-431.050264029735	1825.2026334202678	727.0504485465798	-400.74925521273536	1830.8122781554719	695.1921631537197	-405.1321482662119	1827.3314116995184	680.4098394834145	-410.80072838470204	1820.01356135122	676.8305618264276	-415.3039670458822	1809.9574528850787	678.4755600286154	-419.7225924749264	1648.7916785935818	1250.2116655383445	-174.9203857620703	1584.3844624729722	1190.0117756832099	-80.06257633674933	1692.056527365843	1003.7613761171087	-205.79844590835015	1836.437105326041	825.9543889249944	-325.51423792498457	1821.8241565520325	819.1049346003177	-346.1651654212746	1816.4328252134346	800.1106802986588	-379.3034013968271	1813.0009038613186	784.7562674529669	-402.28903380493114	1810.4158366843292	770.1365171892052	-421.3726022902069	1820.5434145197855	811.2083671546014	-346.794864536973	1802.1987735867667	779.2417760102084	-383.03067307271317	1795.2895098750316	755.0950134958538	-413.2457657374654	1795.3695187687674	743.2523997049756	-432.0372229755477	1798.3871516150368	735.5881476148911	-447.59545399537376	1822.3377260497282	806.4460269430883	-345.5214503010918	1805.4137818119805	772.6913700896878	-380.17455998460076	1798.1779669348907	745.8153814302535	-412.86592035623585	1798.4201847171296	731.2747944969819	-435.40308081835747	1801.792853608724	722.7657677854216	-452.3614487001478	1824.0125137010434	803.8962158943793	-343.6529651252626	1810.120617725759	771.4290712153014	-372.95792655834055	1804.1514871589986	747.5183509460205	-401.11222374049174	1804.5644351567776	733.2349756096853	-422.6707541468555	1807.8205679064308	725.1121711181844	-438.53041561347527	1826.954892711064	801.8910816768235	-340.79739618889744	1815.8166399917027	770.8627125452153	-365.77885921503815	1811.624557741954	751.1000371260437	-387.666474431088	1812.210089000771	740.3837745484896	-403.0733890169776	1815.2581268674774	733.016844424177	-416.93948436114266
90	0.371	1921.0129	906.651	56.2195	1997.5734807285864	890.8351767377077	1.6011739877106597	1915.6004936464499	489.79387075443685	-86.96856980086686	1903.6400877204778	106.34797088964514	-161.62751601211102	1828.6353751777472	30.764867261405158	-2.888271582806641	1853.3624982938127	894.0341629239596	122.46986994386374	1789.251863429548	490.77330957418945	216.36271006794522	1747.1290922464032	59.37159549057285	296.9997595398386	1614.0780984438754	-15.243145119511723	181.5765845085184	1878.7728251905828	1033.5770865363336	5.548636386473516	1829.9197677740337	1100.1338585242843	-45.17458961590871	1774.422445594538	1163.6715062067885	-100.53111785155355	1714.9361611358358	1214.8502233235356	-157.669497249194	1650.9138804811337	1269.7452486957231	-218.0336869937668	1591.3400335654762	1319.5486850416967	-272.1277716412425	1472.9623584869373	1413.638476748154	-323.38911662026004	1694.6591560677887	1253.169036363631	-219.64626764379446	1754.7431986169984	1245.3728096777618	-331.2012672376329	1765.0557047082466	975.7373111579633	-324.63818411132627	1816.668336754141	755.5172746091966	-399.09649617475213	1821.1893549154956	742.4572315365442	-412.08912258444116	1811.3056996218365	732.140913204013	-424.98478945108974	1804.802681074481	723.1333088599997	-432.9204819840222	1799.7064386381476	714.0642695015705	-438.6422701746677	1824.661954924274	733.5480825633254	-409.4076861031721	1830.9430207010475	698.2981618544515	-421.8451177063164	1826.2560763940946	680.04301068359	-431.18390646233723	1817.5733780367937	676.3588455949742	-437.25106682893386	1806.4954575784402	678.4797798714574	-442.4490691995521	1825.0462257814704	730.1141342263735	-406.1654431873638	1831.383028483379	693.8732096617207	-416.54262120365684	1826.2876535154612	673.6222800647378	-426.2658063887836	1815.8214036349477	669.0186897076219	-433.36136622722074	1803.7045795761214	671.262195276808	-438.9399072195076	1825.2531341891288	728.5049209702097	-403.5461249399073	1831.3918098308409	694.387076953456	-410.5393304076193	1826.959055741499	676.4560824748382	-418.5202407376877	1816.8679727479007	671.8667679846454	-425.10221517225403	1805.4772015661597	673.9057321944415	-430.22316459878937	1824.5556970642517	728.3225494016248	-400.2558741767822	1830.0792555648693	696.6287111720917	-404.6076843418728	1826.5152835231336	681.982468293286	-410.19762624115145	1819.1478478813403	678.4958020483567	-414.61113476730105	1809.053465270009	680.2218817914875	-418.9245008944331	1649.029397385365	1250.4426912819335	-174.81545977425847	1584.7787498427115	1190.4456736556574	-79.97327957145139	1692.4107421034423	1004.4463353647369	-205.75912202720448	1836.3270771292732	826.9517827122269	-325.39364221488626	1822.1674931784203	820.7858802006109	-346.3328719429065	1817.1717432072287	802.3072223119568	-379.351530684144	1813.9787662438173	787.2674244286993	-402.25572804877595	1811.561644380917	772.871932536155	-421.27297659721665	1820.7984666644218	812.8064401778931	-347.04335172184375	1802.8715644530423	781.5334922442349	-383.64326330289117	1796.2472139283043	757.7960328422099	-413.85672645771655	1796.498519575886	746.149969631362	-432.47744323413326	1799.6540003855714	738.6093406605117	-447.779867840143	1822.4785908340803	807.8955804872536	-345.75014187700134	1805.9003391833744	774.7371704505057	-380.74775192178294	1798.9589932593367	748.2858720784382	-413.433220837805	1799.399991805289	733.9718892934136	-435.7624182694087	1802.9196584501622	725.5930113024115	-452.4399262841644	1824.0619514472257	805.2237328705411	-343.86105508814404	1810.4002152676317	773.1867406726299	-373.4646947043936	1804.6704097129045	749.6228136518353	-401.6090811870799	1805.2658923550312	735.5456028719043	-422.96447636167863	1808.6558762770599	727.5392901465327	-438.55885814793606	1826.887616113258	803.0531781481639	-340.95012680828785	1815.8883204820822	772.3195736173998	-366.1804967467548	1811.859833274242	752.7962581695715	-388.0514063230677	1812.5649368786342	742.2118273795868	-403.3059089765657	1815.7237375626896	734.9374164216032	-416.9345666063169
91	0.375	1921.0129	906.651	56.2195	1997.4407525916965	890.7983649189412	1.6185325058172717	1915.5412994687954	489.8125870970505	-87.25379988957206	1903.90602525532	106.46775768202555	-162.09484904092375	1828.9040546107285	30.855108368301394	-3.3688191572184794	1853.4766729084774	894.0628578628327	122.44557717373296	1789.391508281287	490.7919849564282	216.30003425809542	1746.9845166731418	59.36344685578593	296.60266685508356	1613.9991019846707	-15.33375683258033	181.16540795511025	1878.8592755224822	1033.614966755199	5.579635065476001	1830.057004998457	1100.2315504366065	-45.112116185454866	1774.5867411667828	1163.8110758361522	-100.44149422187346	1715.1221296270296	1215.036160540214	-157.55207618703656	1651.1196601602373	1269.9781428148074	-217.88492006492405	1591.5628431398577	1319.8241899097432	-271.9484344720707	1473.1513549853016	1413.898877424819	-323.1429626158027	1694.8182210557452	1253.359011916929	-219.49902191858143	1754.7675978442696	1245.5199261967923	-330.98939240980343	1764.3933403866686	976.2591157224949	-323.83315880237933	1815.6017992202064	756.7954969221158	-398.31379804500983	1819.7974895630582	743.8443859534315	-411.37417283456585	1809.6768185889446	733.7254624098038	-424.13756512552237	1803.0362551311732	724.8585051691157	-431.97328976184883	1797.8488874932082	715.9094342174192	-437.6050236523752	1823.3337610998224	734.9506957207126	-408.689725825827	1829.339145415809	699.9283844440508	-421.1150156456825	1824.4876677800194	681.8633339283814	-430.3442792596677	1815.716655091603	678.2945073527279	-436.2952086732549	1804.5750600278598	680.5089874386837	-441.36453160768116	1823.8037624249596	731.5189808615228	-405.42174631525313	1829.9180346550415	695.5012584146352	-415.7731891615791	1824.6553649602988	675.457364341668	-425.3733786762646	1814.088439430191	670.9927329744554	-432.32703673205225	1801.9048003053704	673.3385003726966	-437.76396680371744	1824.078121121794	729.9052817611926	-402.78552854624644	1830.0754720572245	695.9828307839006	-409.743844476708	1825.5097663329143	678.2315248620984	-417.61401919204667	1815.328404273358	673.7758427181514	-424.0572431562478	1803.8780483484243	675.910767410442	-429.04415434747426	1823.4676144722555	729.7131603904886	-399.46848839716245	1828.914541574899	698.1917379298978	-403.7750424197825	1825.2647894520262	683.6873489265322	-409.27095062299367	1817.8415109291498	680.2971689306	-413.58065831226236	1807.7001046022508	682.1076825519452	-417.77379775595676	1649.2709939095	1250.687748246293	-174.68752643152555	1585.1754923931446	1190.8913926439484	-79.86838942681135	1693.235629463097	1005.5464004843276	-205.9192442819976	1837.4341070578446	828.9041260659109	-325.4335762098431	1823.7453347388046	823.5434095037015	-346.6731281803826	1819.156851710906	805.6874611117456	-379.57195660418074	1816.2093910337067	791.0302619051689	-402.40333196548846	1813.9643531963575	776.910050992576	-421.36896003330025	1822.2843576145813	815.4699022777141	-347.5016356045061	1804.7889431951228	785.0290787528509	-384.5534712991893	1798.4572205620236	761.7901486115672	-414.801660004802	1798.8838115824526	750.3868259753219	-433.2466742389791	1802.1798965731596	743.0017896758841	-448.2705918706882	1823.845467779192	810.3873893764362	-346.20830369448964	1807.6237089140377	777.947784519821	-381.6467188778513	1800.9845674720636	752.0150300693424	-414.368247529108	1801.6288306677882	737.9816924711663	-436.4845894571914	1805.2983509814767	729.7671241491064	-452.8569300679238	1825.3336523568464	807.5736833096224	-344.3105983445506	1811.9085338585555	776.0596409414072	-374.3105830414477	1806.4240788904954	752.9205276996865	-402.4837989973818	1807.2060407016434	739.0996006175294	-423.6324940319043	1810.7323817501465	731.2409479403084	-438.93928978504766	1828.0377939172945	805.21040303209	-341.35300786014716	1817.1804564626527	774.840077892305	-366.9283494560131	1813.319243870638	755.6122933336296	-388.81653924397216	1814.1462430865859	745.1932013159412	-403.917465250026	1817.4177075995576	738.0371640174022	-417.2897500052871
92	0.379	1921.0129	906.651	56.2195	1997.3026476523833	890.761327448509	1.630021862273838	1915.6069671788987	489.79692451403525	-87.47721407986711	1904.3146750262588	106.55230068741851	-162.497353125195	1829.3195623153347	30.91065835924903	-3.7823533003722405	1853.5964582522543	894.0913107784979	122.42579386851814	1789.5351265533204	490.8149787150647	216.25989987044832	1746.8707685235665	59.36285864599448	296.2521418985375	1613.9487858275825	-15.41348625521343	180.80119524890273	1878.9448041185915	1033.6549615328677	5.616885034887677	1830.190819667861	1100.334165093006	-45.03744513634104	1774.7440094465398	1163.9578426984383	-100.33349303266864	1715.2968520976642	1215.2309052721173	-157.41013947377044	1651.3103579994558	1270.2214754227057	-217.70569639323796	1591.7677226651901	1320.1115507266902	-271.7337822696585	1473.3319160169717	1414.1782338901207	-322.8712107459669	1694.9625347689516	1253.561588124976	-219.32235373399385	1754.7644843383778	1245.6694529884505	-330.75386129516426	1763.8059699796709	976.7770510512158	-323.0824621728276	1814.291173735523	758.1199409793726	-397.4149658300573	1818.2064745333612	745.2875116432219	-410.54912184203937	1807.8780368762355	735.3468360595854	-423.19630875844723	1801.1172761667835	726.6054150157845	-430.9431544936748	1795.8506598423787	717.7621940416475	-436.4939923627394	1821.801051588517	736.4063049439719	-407.86089922775403	1827.5742031405016	701.6045279596375	-420.28585779190746	1822.581249720514	683.7112896373067	-429.4189173624058	1813.7314063775575	680.2410929551605	-435.2638634732811	1802.5307157890477	682.5316879680006	-440.21431535866765	1822.3467108703683	732.9716006739816	-404.566738944072	1828.275385197787	697.1673579370286	-414.903723357876	1822.8691017390354	677.309860001445	-424.39536201711786	1812.2122332660372	672.9637016871525	-431.2194391981436	1799.9664435372047	675.3924990354515	-436.52546964189673	1822.6803573812292	731.3500286359867	-401.9129550636153	1828.562576519772	697.6116762717853	-408.8457644318016	1823.8829889873314	680.0213858733675	-416.6176844030962	1813.6208661422586	675.679212233178	-422.93398309323095	1802.1149158107648	677.8918415733372	-427.79689996120015	1822.145626120608	731.1434926956298	-398.5684111755741	1827.533291163438	699.781660693318	-402.8377105504742	1823.8104649372883	685.4031536016139	-408.2493666788936	1816.337045200247	682.0942883930588	-412.4637965467093	1806.1514366690053	683.9727815313413	-416.5455475414603	1649.499719964399	1250.939831511155	-174.5320674042204	1585.561501849245	1191.3398996905942	-79.74493581609015	1694.2469671938236	1006.8098992735221	-206.14029116309192	1839.0500593744387	831.2676501132624	-325.51326499473345	1825.7372679050081	826.6444175916437	-346.9902782492274	1821.470961950642	809.3579768266621	-379.7785727615159	1818.7166006701727	795.0514617450343	-402.5459311423303	1816.60579889602	781.1843203050959	-421.4692740673681	1824.199879361824	818.4881635983661	-347.93169486106586	1807.0413286606565	788.816151473474	-385.3735961634686	1800.9378525505354	766.0363841159942	-415.65463612268286	1801.5022812178167	754.8546344361904	-433.9482844146198	1804.909713299792	747.6098995220085	-448.73103962413154	1825.6639397363547	813.2503933271905	-346.64869212574905	1809.71825896445	781.4767063866761	-382.473218049525	1803.3142764809809	756.021914678892	-415.23039274879494	1804.1181633689212	742.2448231708856	-437.16402255449157	1807.9062728182962	734.1783867464158	-453.27243794797886	1827.0748912210604	810.3080008383052	-344.7509141650664	1813.8299309096708	779.2808678380563	-375.104432157762	1808.5357932327117	756.5337079018828	-403.30787525773195	1809.463946565484	742.94686388211	-424.2798795567097	1813.0981057043637	735.2212920320161	-439.33831029095563	1829.6808446458642	807.769221677943	-341.7615750060693	1818.9280734134509	777.7396298501968	-367.6504025178161	1815.195623851607	758.7851373947833	-389.5599229445634	1816.1178212928849	748.5171616544969	-404.53058079200565	1819.478215441712	741.4677172451488	-417.6820521993314
